<svg width="176" height="118" viewBox="0 0 176 118" fill="none" xmlns="http://www.w3.org/2000/svg">
<path opacity="0.3" d="M119.832 1.00784C106.64 0.983537 93.8658 5.80192 83.7673 14.6108C83.5838 14.7779 83.3928 14.9489 83.2131 15.1082C81.1087 16.8681 78.5293 17.9057 75.8318 18.0777C73.1344 18.2497 70.4521 17.5476 68.1559 16.0682C61.7891 12.6747 54.7544 10.85 47.5979 10.7359C47.3321 10.7359 47.07 10.7164 46.8078 10.7164C34.3936 10.7164 22.4879 15.8348 13.7097 24.9457C4.93152 34.0566 0 46.4136 0 59.2984C0 72.1831 4.93152 84.5401 13.7097 93.651C22.4879 102.762 34.3936 107.88 46.8078 107.88C47.07 107.88 47.3358 107.88 47.5979 107.861C54.7542 107.749 61.7891 105.925 68.1559 102.532C70.4526 101.055 73.1346 100.354 75.8317 100.526C78.5287 100.697 81.1079 101.734 83.2131 103.492C83.4041 103.652 83.5875 103.819 83.7673 103.99C90.6884 110.006 98.9045 114.201 107.72 116.222C116.535 118.242 125.689 118.027 134.407 115.595C143.126 113.164 151.151 108.587 157.803 102.253C164.455 95.9188 169.538 88.0138 172.622 79.2077C175.705 70.4016 176.698 60.9539 175.517 51.6648C174.335 42.3758 171.014 33.5191 165.835 25.8451C160.655 18.1712 153.77 11.906 145.762 7.5804C137.754 3.25482 128.859 0.996294 119.832 0.996094V1.00784ZM119.832 102.058C110.115 102.072 100.709 98.5044 93.2899 91.992C93.1064 91.8288 92.9154 91.6656 92.7432 91.4985C88.5401 87.9394 83.4312 85.7244 78.0378 85.1227C72.6444 84.521 67.1988 85.5587 62.363 88.1094C61.9885 88.3231 61.6141 88.5175 61.2396 88.7157C56.3873 91.2909 50.9792 92.5299 45.5333 92.3139C40.0874 92.098 34.7862 90.4343 30.1373 87.4823C25.4885 84.5303 21.6479 80.3888 18.9833 75.4546C16.3187 70.5204 14.9193 64.9587 14.9193 59.3023C14.9193 53.6459 16.3187 48.0842 18.9833 43.15C21.6479 38.2157 25.4885 34.0743 30.1373 31.1222C34.7862 28.1702 40.0874 26.5066 45.5333 26.2906C50.9792 26.0746 56.3873 27.3136 61.2396 29.8888C61.6141 30.0871 61.9885 30.2774 62.363 30.495C64.6636 31.7111 67.1162 32.5889 69.65 33.103C73.6872 33.9113 77.8458 33.7933 81.8344 32.7574C85.8229 31.7214 89.5449 29.7926 92.7394 27.1061C92.9229 26.9389 93.1139 26.7717 93.2899 26.6124C98.3564 22.1803 104.378 19.0823 110.844 17.5811C117.311 16.0799 124.03 16.22 130.433 17.9893C136.836 19.7587 142.734 23.1051 147.625 27.7446C152.516 32.3842 156.256 38.18 158.529 44.64C160.801 51.1001 161.538 58.0338 160.678 64.8528C159.818 71.6717 157.385 78.1747 153.587 83.8097C149.789 89.4447 144.737 94.0455 138.86 97.2217C132.983 100.398 126.454 102.056 119.828 102.054L119.832 102.058Z" fill="#FFB100"/>
</svg>
